<?xml version="1.0" encoding="utf-8"?>
<!-- Generator: Adobe Illustrator 19.2.1, SVG Export Plug-In . SVG Version: 6.00 Build 0)  -->
<svg version="1.1" id="Layer_1" xmlns="http://www.w3.org/2000/svg" xmlns:xlink="http://www.w3.org/1999/xlink" x="0px" y="0px"
	 viewBox="0 0 531.6 121.1" xml:space="preserve">
<style type="text/css">
	.st0{fill:#838386;}
	.st1{fill:#010101;}
	.st2{fill:#E21F27;}
</style>
<g>
	<g>
		<path class="st0" d="M135.6,81.5l-5.2,5.2c-0.9,0.9-2,1.3-3.2,1.3h-17.6c-1.2,0-2.3-0.4-3.2-1.3l-5.4-5.4l5.1-5.1l4.2,4.2
			c0.3,0.3,0.5,0.4,0.9,0.4h14.3c0.4,0,0.6-0.1,0.9-0.4L129,78c0.3-0.3,0.4-0.6,0.4-0.9v-4c0-0.6-0.6-1.2-1.2-1.3l-22.7-3
			c-2.5-0.3-4.4-2.5-4.4-4.9v-8.3c0-1.2,0.4-2.3,1.3-3.2l5.2-5.2c0.9-0.9,2-1.3,3.2-1.3h17.6c1.2,0,2.3,0.4,3.2,1.3l5.4,5.4
			l-5.1,5.1l-4.2-4.2c-0.3-0.2-0.5-0.4-0.9-0.4h-14.3c-0.4,0-0.6,0.1-0.9,0.4l-2.5,2.5c-0.3,0.3-0.4,0.6-0.4,0.9v4
			c0,0.6,0.5,1.2,1.1,1.3l22.7,3c2.5,0.3,4.4,2.5,4.4,4.9v8.3C137,79.6,136.5,80.7,135.6,81.5"/>
	</g>
	<polygon class="st0" points="164.3,53.1 164.3,88 156.7,88 156.7,53.1 144.5,53.1 144.5,45.9 176.5,45.9 176.5,53.1 	"/>
	<polygon class="st0" points="185.3,88 185.3,45.9 213.5,45.9 213.5,53.1 192.9,53.1 192.9,63.3 213.5,63.3 213.5,70.6 192.9,70.6 
		192.9,80.8 213.5,80.8 213.5,88 	"/>
	<polygon class="st0" points="224.3,88 224.3,45.9 252.5,45.9 252.5,53.1 231.9,53.1 231.9,63.3 252.5,63.3 252.5,70.6 231.9,70.6 
		231.9,80.8 252.5,80.8 252.5,88 	"/>
	<polygon class="st0" points="263.3,88 263.3,45.9 270.9,45.9 270.9,80.8 291.5,80.8 291.5,88 	"/>
	<polygon class="st1" points="324.6,88 324.6,70.6 307.7,70.6 307.7,88 300.1,88 300.1,45.9 307.7,45.9 307.7,63.3 324.6,63.3 
		324.6,45.9 332.1,45.9 332.1,88 	"/>
	<g>
		<path class="st1" d="M377.4,81.5l-5.2,5.2c-0.9,0.9-2,1.3-3.2,1.3h-16.5c-1.2,0-2.3-0.4-3.2-1.3l-5.2-5.2c-0.9-0.9-1.3-2-1.3-3.2
			V55.6c0-1.2,0.4-2.3,1.3-3.2l5.2-5.2c0.9-0.9,2-1.3,3.2-1.3h16.5c1.2,0,2.3,0.4,3.2,1.3l5.2,5.2c0.9,0.9,1.3,2,1.3,3.2v22.8
			C378.7,79.6,378.3,80.7,377.4,81.5 M371.1,56.8c0-0.3-0.1-0.6-0.4-0.9l-2.5-2.5c-0.3-0.2-0.5-0.4-0.9-0.4h-13.2
			c-0.4,0-0.6,0.1-0.9,0.4l-2.5,2.5c-0.3,0.3-0.4,0.6-0.4,0.9v20.3c0,0.3,0.1,0.6,0.4,0.9l2.5,2.5c0.3,0.3,0.5,0.4,0.9,0.4h13.2
			c0.4,0,0.6-0.1,0.9-0.4l2.5-2.5c0.3-0.3,0.4-0.6,0.4-0.9V56.8z"/>
		<path class="st1" d="M419.7,81.5l-5.2,5.2c-0.9,0.9-2,1.3-3.2,1.3h-12.7c-1.2,0-2.3-0.4-3.2-1.3l-5.2-5.2c-0.9-0.9-1.3-2-1.3-3.2
			V45.9h7.6v31.2c0,0.3,0.1,0.6,0.4,0.9l2.5,2.5c0.3,0.3,0.5,0.4,0.9,0.4h9.4c0.4,0,0.6-0.1,0.9-0.4L413,78c0.3-0.3,0.4-0.6,0.4-0.9
			V45.9h7.6v32.5C421,79.6,420.5,80.7,419.7,81.5"/>
		<path class="st1" d="M465.1,81.5l-5.2,5.2c-0.9,0.9-2,1.3-3.2,1.3h-17.6c-1.2,0-2.3-0.4-3.2-1.3l-5.4-5.4l5-5.1l4.2,4.2
			c0.3,0.3,0.5,0.4,0.9,0.4h14.3c0.4,0,0.6-0.1,0.9-0.4l2.5-2.5c0.3-0.3,0.4-0.6,0.4-0.9v-4c0-0.6-0.6-1.2-1.2-1.3l-22.7-3
			c-2.5-0.3-4.4-2.5-4.4-4.9v-8.3c0-1.2,0.4-2.3,1.3-3.2l5.2-5.2c0.9-0.9,2-1.3,3.2-1.3h17.6c1.2,0,2.3,0.4,3.2,1.3l5.4,5.4
			l-5.1,5.1l-4.2-4.2c-0.3-0.2-0.5-0.4-0.9-0.4H442c-0.4,0-0.6,0.1-0.9,0.4l-2.5,2.5c-0.2,0.3-0.4,0.6-0.4,0.9v4
			c0,0.6,0.5,1.2,1.1,1.3l22.7,3c2.5,0.3,4.4,2.5,4.4,4.9v8.3C466.5,79.6,466,80.7,465.1,81.5"/>
	</g>
	<polygon class="st1" points="476.6,88 476.6,45.9 504.8,45.9 504.8,53.1 484.2,53.1 484.2,63.3 504.8,63.3 504.8,70.6 484.2,70.6 
		484.2,80.8 504.8,80.8 504.8,88 	"/>
	<path class="st2" d="M16,98.4h61.2V35.6H16V98.4z M70.3,91.5H22.9v-7.1h41.3V63.5H36.3v-7.1h34V91.5z M70.3,49.5H29.4v20.9h27.9
		v7.1H22.9V42.5h47.4V49.5z"/>
</g>
</svg>
